<svg id="slproduct" xmlns="http://www.w3.org/2000/svg" width="195" height="16" viewBox="0 0 195 16">
  <metadata><?xpacket begin="﻿" id="W5M0MpCehiHzreSzNTczkc9d"?>
<x:xmpmeta xmlns:x="adobe:ns:meta/" x:xmptk="Adobe XMP Core 5.6-c138 79.159824, 2016/09/14-01:09:01        ">
   <rdf:RDF xmlns:rdf="http://www.w3.org/1999/02/22-rdf-syntax-ns#">
      <rdf:Description rdf:about=""/>
   </rdf:RDF>
</x:xmpmeta>
                                                                                                    
                                                                                                    
                                                                                                    
                                                                                                    
                                                                                                    
                                                                                                    
                                                                                                    
                                                                                                    
                                                                                                    
                                                                                                    
                                                                                                    
                                                                                                    
                                                                                                    
                                                                                                    
                                                                                                    
                                                                                                    
                                                                                                    
                                                                                                    
                                                                                                    
                                                                                                    
                           
<?xpacket end="w"?></metadata>
<defs>
    <style>
      .cls-1 {
        fill: #626262;
      }

      .cls-1, .cls-2 {
        fill-rule: evenodd;
      }

      .cls-2 {
        fill: #fff;
      }
    </style>
  </defs>
  <path id="a_SensioLabs_Product_copie" data-name="a SensioLabs Product copie" class="cls-1" d="M977.585,100.367a1.492,1.492,0,0,0,1.119.424,3,3,0,0,0,1.05-.162q0.431-.16,1.315-0.524l0.147-.646a3.078,3.078,0,0,1-.53.131,3.287,3.287,0,0,1-.53.061,1.224,1.224,0,0,1-.794-0.2,1,1,0,0,1-.235-0.778,4,4,0,0,1,.083-0.661q0.082-.449.162-0.762l1.491-6.514-0.118-.151-1.8.475a3.79,3.79,0,0,0-.993-0.434,4.506,4.506,0,0,0-3.459.359,5.962,5.962,0,0,0-1.79,1.449,7.264,7.264,0,0,0-1.243,2.12,6.781,6.781,0,0,0-.45,2.433,4.6,4.6,0,0,0,.807,2.868,2.647,2.647,0,0,0,2.224,1.05,2.536,2.536,0,0,0,.978-0.187,4.958,4.958,0,0,0,.831-0.439,4.769,4.769,0,0,0,.7-0.53q0.3-.278.514-0.459h0.068A1.638,1.638,0,0,0,977.585,100.367Zm-0.294-2.029a5.579,5.579,0,0,1-1.354,1.116,2.454,2.454,0,0,1-1.148.318,1.7,1.7,0,0,1-.889-0.212,1.379,1.379,0,0,1-.538-0.6A2.877,2.877,0,0,1,973.1,98.1a8.048,8.048,0,0,1,.255-3.3,6.888,6.888,0,0,1,.833-1.858,4.865,4.865,0,0,1,1.215-1.3,2.359,2.359,0,0,1,1.391-.485,2.144,2.144,0,0,1,.862.151,1.426,1.426,0,0,1,.823.97,2.918,2.918,0,0,1,.068.636Zm10.182-2.308a4.441,4.441,0,0,0,1.633,3.647A6.914,6.914,0,0,0,993.589,101a6.322,6.322,0,0,0,4.32-1.346,4.317,4.317,0,0,0,1.529-3.384,3.687,3.687,0,0,0-1.29-3.036,6.347,6.347,0,0,0-2.5-1.079l-2.532-.615a8.537,8.537,0,0,1-1.918-.615,1.281,1.281,0,0,1-.7-1.19,1.545,1.545,0,0,1,.713-1.352,3.342,3.342,0,0,1,1.907-.484,3.892,3.892,0,0,1,1.8.373,2.135,2.135,0,0,1,1.165,1.906h2.9a4.477,4.477,0,0,0-1.71-3.616,6.3,6.3,0,0,0-3.94-1.246,5.967,5.967,0,0,0-4.193,1.321,4.33,4.33,0,0,0-1.427,3.319,3.665,3.665,0,0,0,1.459,3.218,9.542,9.542,0,0,0,3.165,1.14l1.562,0.353a6.718,6.718,0,0,1,2,.7,1.28,1.28,0,0,1,.632,1.14,1.724,1.724,0,0,1-1.29,1.725,5.375,5.375,0,0,1-1.769.242,3.15,3.15,0,0,1-2.57-.918,3.069,3.069,0,0,1-.549-1.523h-2.879Zm17.3-4.328a2.42,2.42,0,0,1,1.66.593,2.445,2.445,0,0,1,.74,1.737h-4.81a2.988,2.988,0,0,1,.75-1.7,2.167,2.167,0,0,1,1.66-.628h0Zm0-2.371a5.079,5.079,0,0,0-3.82,1.525,6.075,6.075,0,0,0-1.467,4.382,5.432,5.432,0,0,0,1.627,4.4,5.724,5.724,0,0,0,3.76,1.353,5.123,5.123,0,0,0,4.02-1.6,3.612,3.612,0,0,0,1.03-1.987h-2.85a2.407,2.407,0,0,1-.57.757,2.332,2.332,0,0,1-1.55.5,2.783,2.783,0,0,1-1.54-.413,2.683,2.683,0,0,1-1.12-2.32h7.78a15.833,15.833,0,0,0-.09-2.182,5.476,5.476,0,0,0-.86-2.273,4.366,4.366,0,0,0-1.84-1.627,5.9,5.9,0,0,0-2.51-.515h0Zm11.62,0.03a3.45,3.45,0,0,0-2.18.666,4.857,4.857,0,0,0-1.01,1.221v-1.6h-2.7v10.975h2.79V94.668a4.438,4.438,0,0,1,.27-1.675,1.919,1.919,0,0,1,1.93-1.241,1.561,1.561,0,0,1,1.56.847,3.146,3.146,0,0,1,.22,1.332v6.688h2.86v-7.4a3.7,3.7,0,0,0-1.05-2.961,4.014,4.014,0,0,0-2.69-.893h0Zm4.67,7.747a3.608,3.608,0,0,0,1.2,2.789,5.39,5.39,0,0,0,3.72,1.094,5.461,5.461,0,0,0,3.66-1.034,3.405,3.405,0,0,0,1.18-2.668,2.845,2.845,0,0,0-.82-2.068A5.316,5.316,0,0,0,1027.5,94a17.7,17.7,0,0,1-2.92-.8,0.76,0.76,0,0,1-.41-0.716,0.846,0.846,0,0,1,.39-0.686,2.207,2.207,0,0,1,1.3-.293,1.889,1.889,0,0,1,1.57.585,1.679,1.679,0,0,1,.3.878h2.8a3.568,3.568,0,0,0-1.45-2.84,5.876,5.876,0,0,0-3.26-.822,4.611,4.611,0,0,0-3.28,1.094,3.487,3.487,0,0,0-1.16,2.618,2.575,2.575,0,0,0,.74,1.977,6,6,0,0,0,2.57,1.16,15.786,15.786,0,0,1,2.92.867,0.823,0.823,0,0,1,.39.736,0.8,0.8,0,0,1-.49.757,2.849,2.849,0,0,1-1.31.252,2.556,2.556,0,0,1-1.93-.575,1.933,1.933,0,0,1-.38-1.089h-2.83Zm13.68-11.449h-2.83v2.653h2.83V85.659Zm-2.83,14.96h2.83v-11h-2.83v11Zm9.32-2.037a2.217,2.217,0,0,1-1.89-.9,5.24,5.24,0,0,1,0-5.092,2.222,2.222,0,0,1,1.89-.891,2.192,2.192,0,0,1,1.88.891,5.24,5.24,0,0,1,0,5.092,2.187,2.187,0,0,1-1.88.9h0Zm5.46-3.445a6.536,6.536,0,0,0-1.35-4.122,5.692,5.692,0,0,0-8.2,0,6.992,6.992,0,0,0,0,8.26,5.751,5.751,0,0,0,8.2,0,6.493,6.493,0,0,0,1.35-4.138h0Zm59.12-8.06a4.5,4.5,0,0,0-2.73-.772h-6.18l-0.15.666c0.19,0.014.41,0.04,0.65,0.081a3.545,3.545,0,0,1,.66.182,0.526,0.526,0,0,1,.29.262,0.807,0.807,0,0,1,.08.383,1.552,1.552,0,0,1-.01.212,1.134,1.134,0,0,1-.04.2l-2.34,10.431a1.577,1.577,0,0,1-.25.62,1.091,1.091,0,0,1-.53.408,2.879,2.879,0,0,1-.66.131q-0.45.051-.69,0.071l-0.15.666h5.97l0.15-.666a7.551,7.551,0,0,1-.8-0.071,2.3,2.3,0,0,1-.59-0.131,0.6,0.6,0,0,1-.32-0.272,0.973,0.973,0,0,1-.07-0.393,1.11,1.11,0,0,1,.01-0.172,1.187,1.187,0,0,1,.02-0.193l1-4.417h1.69a7.374,7.374,0,0,0,2.24-.338,6.147,6.147,0,0,0,1.93-1,5.039,5.039,0,0,0,1.35-1.594,4.457,4.457,0,0,0,.52-2.179A2.481,2.481,0,0,0,1105.81,87.077Zm-3.42,6.011a4.547,4.547,0,0,1-1.96.389h-1.11l1.42-6.406h1.27a3.106,3.106,0,0,1,1.16.187,2.068,2.068,0,0,1,.76.51,2,2,0,0,1,.41.748,3.144,3.144,0,0,1,.12.879,5.27,5.27,0,0,1-.16,1.258,3.9,3.9,0,0,1-.57,1.268A3.28,3.28,0,0,1,1102.39,93.088Zm13.1-1.815a1.4,1.4,0,0,0-.32-0.489,1.236,1.236,0,0,0-.5-0.272,2.324,2.324,0,0,0-.61-0.081,2.184,2.184,0,0,0-1.26.414,20.852,20.852,0,0,0-1.77,1.454h-0.05a2.178,2.178,0,0,0-.34-1.318,1.3,1.3,0,0,0-1.11-.439,3.7,3.7,0,0,0-1.01.171,10.046,10.046,0,0,0-1.35.525l-0.15.646c0.12-.034.3-0.076,0.52-0.126a2.519,2.519,0,0,1,.55-0.076,1.037,1.037,0,0,1,.74.192,1.136,1.136,0,0,1,.19.757,3.674,3.674,0,0,1-.1.717c-0.06.323-.11,0.566-0.14,0.727l-1.43,6.544h1.83l1.58-7.23a7.637,7.637,0,0,1,1.03-1.02,5.27,5.27,0,0,1,.86-0.576,3.3,3.3,0,0,1,.65-0.258,1.89,1.89,0,0,1,.39-0.066q-0.165.384-.3,0.772a1.971,1.971,0,0,0-.15.7,0.872,0.872,0,0,0,.26.605,1.069,1.069,0,0,0,.8.272,1.043,1.043,0,0,0,.6-0.146,1.363,1.363,0,0,0,.38-0.419,1.619,1.619,0,0,0,.23-0.56,2.908,2.908,0,0,0,.08-0.62A2.684,2.684,0,0,0,1115.49,91.273Zm9.14,0.253a3.479,3.479,0,0,0-2.73-1.1,5.157,5.157,0,0,0-2.34.54,5.62,5.62,0,0,0-1.82,1.418,6.9,6.9,0,0,0-1.15,2.04,7.08,7.08,0,0,0-.43,2.5,4.058,4.058,0,0,0,1.01,2.908,3.451,3.451,0,0,0,2.64,1.081,5.2,5.2,0,0,0,2.46-.561,5.869,5.869,0,0,0,1.82-1.489,6.425,6.425,0,0,0,1.13-2.09,7.636,7.636,0,0,0,.4-2.383A4.121,4.121,0,0,0,1124.63,91.526Zm-1.24,4.736a7.993,7.993,0,0,1-.64,1.944,4.268,4.268,0,0,1-1.1,1.434,2.351,2.351,0,0,1-1.55.566,1.623,1.623,0,0,1-1.46-.743,4.049,4.049,0,0,1-.49-2.187,12.161,12.161,0,0,1,.19-1.984,7.681,7.681,0,0,1,.59-1.954,3.965,3.965,0,0,1,1.24-1.676,2.585,2.585,0,0,1,1.53-.515,1.618,1.618,0,0,1,1.42.717,3.8,3.8,0,0,1,.5,2.151A11.142,11.142,0,0,1,1123.39,96.262Zm10.19,4.15a1.632,1.632,0,0,0,1.13.379,3.76,3.76,0,0,0,1-.152,9.5,9.5,0,0,0,1.36-.534l0.15-.646a3.2,3.2,0,0,1-.53.131,3.358,3.358,0,0,1-.53.061,1.181,1.181,0,0,1-.79-0.207,1.006,1.006,0,0,1-.24-0.782,3.46,3.46,0,0,1,.09-0.651c0.05-.286.11-0.54,0.16-0.762l2.71-12.095L1138,85l-3.97.222-0.14.615q0.33,0.04.75,0.071a2.259,2.259,0,0,1,.64.121,0.808,0.808,0,0,1,.4.283,0.956,0.956,0,0,1,.14.555,3.308,3.308,0,0,1-.02.333q-0.03.151-.09,0.424l-0.76,3.43a4.265,4.265,0,0,0-1.1-.444,5.05,5.05,0,0,0-1.34-.182,4.54,4.54,0,0,0-2.16.55,5.817,5.817,0,0,0-1.77,1.439,7.272,7.272,0,0,0-1.19,2.1,7.041,7.041,0,0,0-.43,2.454,4.67,4.67,0,0,0,.8,2.873,2.652,2.652,0,0,0,2.23,1.055,2.562,2.562,0,0,0,.97-0.162,5.374,5.374,0,0,0,.87-0.465,5.651,5.651,0,0,0,.71-0.54c0.23-.205.42-0.372,0.56-0.5h0.07A1.541,1.541,0,0,0,1133.58,100.412Zm-0.26-2.135a5.761,5.761,0,0,1-1.4,1.161,2.59,2.59,0,0,1-1.17.333,1.658,1.658,0,0,1-.91-0.217,1.413,1.413,0,0,1-.53-0.591,3.133,3.133,0,0,1-.27-0.879,8.644,8.644,0,0,1-.07-1.091,8.286,8.286,0,0,1,.3-2.2,6.833,6.833,0,0,1,.78-1.873,4.693,4.693,0,0,1,1.18-1.293,2.418,2.418,0,0,1,1.43-.485,2,2,0,0,1,.85.166,1.739,1.739,0,0,1,.58.419,1.906,1.906,0,0,1,.32.5,1.467,1.467,0,0,1,.15.571Zm11.8,2.039a1.419,1.419,0,0,0,1.18.475,3.367,3.367,0,0,0,1-.172c0.36-.114.81-0.286,1.36-0.514l0.14-.646a2.961,2.961,0,0,1-.53.131,3.143,3.143,0,0,1-.52.061,1.212,1.212,0,0,1-.8-0.207,1.006,1.006,0,0,1-.24-0.782,4.121,4.121,0,0,1,.08-0.59c0.05-.279.11-0.556,0.17-0.832l1.46-6.5-0.12-.151-1.71.121-1.7,7.6a5.119,5.119,0,0,1-1.33,1.024,2.781,2.781,0,0,1-1.28.338,1.036,1.036,0,0,1-.9-0.393,1.789,1.789,0,0,1-.29-1.069,4.125,4.125,0,0,1,.07-0.56c0.04-.245.09-0.509,0.16-0.792l0.86-3.732q0.075-.313.12-0.625a3.525,3.525,0,0,0,.04-0.494,1.459,1.459,0,0,0-.37-1.074,1.537,1.537,0,0,0-1.15-.378,3.258,3.258,0,0,0-.93.183,11.219,11.219,0,0,0-1.35.539l-0.15.65c0.13-.035.3-0.081,0.52-0.137a2.272,2.272,0,0,1,.55-0.085,1.059,1.059,0,0,1,.74.187,1.12,1.12,0,0,1,.18.751,3.053,3.053,0,0,1-.07.656c-0.04.229-.09,0.491-0.16,0.787l-0.76,3.2a8.153,8.153,0,0,0-.18.989,4.281,4.281,0,0,0-.04.575,2.054,2.054,0,0,0,.52,1.467,1.877,1.877,0,0,0,1.46.56,3.739,3.739,0,0,0,.99-0.106,4.558,4.558,0,0,0,.86-0.348,6.809,6.809,0,0,0,.81-0.524c0.27-.208.56-0.437,0.86-0.686h0.06A1.692,1.692,0,0,0,1145.12,100.316Zm11.01-.216a6.414,6.414,0,0,0,1.84-1.9l-0.56-.424a6.151,6.151,0,0,1-1.42,1.483,2.849,2.849,0,0,1-1.69.525,1.969,1.969,0,0,1-1.68-.842,3.714,3.714,0,0,1-.63-2.275,7.489,7.489,0,0,1,.97-3.919,2.733,2.733,0,0,1,2.29-1.6,2.435,2.435,0,0,1,.78.126,0.712,0.712,0,0,1,.48.4c-0.09.228-.2,0.528-0.34,0.9a2.693,2.693,0,0,0-.21.88,0.868,0.868,0,0,0,.26.6,1.071,1.071,0,0,0,.8.271,1.039,1.039,0,0,0,.95-0.525,2.327,2.327,0,0,0,.32-1.221,1.912,1.912,0,0,0-.73-1.538,3.257,3.257,0,0,0-2.13-.61,4.694,4.694,0,0,0-2.3.57,5.387,5.387,0,0,0-1.7,1.469,7,7,0,0,0-1.06,2.055,7.787,7.787,0,0,0-.37,2.418,4.056,4.056,0,0,0,.99,2.928,3.594,3.594,0,0,0,2.71,1.03A4.2,4.2,0,0,0,1156.13,100.1Zm6.7,0.534c0.41-.131.84-0.287,1.3-0.469l0.16-.736a3.319,3.319,0,0,1-.71.166,5.5,5.5,0,0,1-.72.066,1.4,1.4,0,0,1-.97-0.257,1.077,1.077,0,0,1-.27-0.812,3.787,3.787,0,0,1,.06-0.61c0.04-.239.09-0.486,0.14-0.741l1.27-5.558h2.7l0.21-.918h-2.73l0.66-2.956h-1.76l-0.68,2.956h-1.79l-0.21.918h1.76l-1.53,6.738c-0.03.175-.06,0.331-0.08,0.469a3.059,3.059,0,0,0-.03.439,1.449,1.449,0,0,0,.43,1.115,2,2,0,0,0,1.36.388A4.63,4.63,0,0,0,1162.83,100.634Z" transform="translate(-971 -85)"/>
  <path id="a_SensioLabs_Product_copie_2" data-name="a SensioLabs Product copie 2" class="cls-2" d="M1047.91,100.619h10.23V97.946h-7.21V85.75h-3.02v14.869Zm16.96-4.277a2.349,2.349,0,0,1-.8,1.987,2.885,2.885,0,0,1-1.69.545,1.514,1.514,0,0,1-.98-0.328,1.523,1.523,0,0,1,.26-2.285,4.121,4.121,0,0,1,1.28-.393l0.64-.121a4.352,4.352,0,0,0,.75-0.2,3.158,3.158,0,0,0,.54-0.277v1.069Zm-2.66-2.29a6.68,6.68,0,0,0-2.47.706,3.153,3.153,0,0,0-1.53,2.935,3.09,3.09,0,0,0,.95,2.416,3.474,3.474,0,0,0,2.41.852,3.974,3.974,0,0,0,2.05-.535,5.952,5.952,0,0,0,1.34-1.1,5.689,5.689,0,0,0,.08.666,3.4,3.4,0,0,0,.17.625h3.04V100.2a0.944,0.944,0,0,1-.41-0.332,1.533,1.533,0,0,1-.17-0.767c-0.01-.5-0.02-0.921-0.02-1.271V92.781a2.771,2.771,0,0,0-1.37-2.7,6.616,6.616,0,0,0-3.12-.716c-1.81,0-3.08.484-3.82,1.453a4.264,4.264,0,0,0-.79,2.371h2.7a2.038,2.038,0,0,1,.39-1.009,1.751,1.751,0,0,1,1.42-.5,2.86,2.86,0,0,1,1.36.257,0.987,0.987,0,0,1,.46.933,0.862,0.862,0,0,1-.6.817,4.421,4.421,0,0,1-1.12.252Zm12.67-4.67a3.429,3.429,0,0,0-1.93.5,4.041,4.041,0,0,0-1.17,1.17V85.77h-2.79v14.849h2.75V99.237a4.278,4.278,0,0,0,1.04,1.13,4.194,4.194,0,0,0,5.43-1.14,7.207,7.207,0,0,0,1.19-4.247,6.442,6.442,0,0,0-1.2-4.035,3.956,3.956,0,0,0-3.32-1.564h0Zm-0.7,9.159a2.086,2.086,0,0,1-1.87-.928,4.15,4.15,0,0,1-.61-2.34,5.381,5.381,0,0,1,.3-1.957,2.089,2.089,0,0,1,2.1-1.422,2.055,2.055,0,0,1,2.07,1.453,5.364,5.364,0,0,1,.3,1.937,4.179,4.179,0,0,1-.6,2.361,1.937,1.937,0,0,1-1.69.9h0Zm5.49-1.432a3.608,3.608,0,0,0,1.2,2.789,5.39,5.39,0,0,0,3.72,1.094,5.461,5.461,0,0,0,3.66-1.034,3.405,3.405,0,0,0,1.18-2.668,2.845,2.845,0,0,0-.82-2.068,5.316,5.316,0,0,0-2.5-1.221,17.7,17.7,0,0,1-2.92-.8,0.76,0.76,0,0,1-.41-0.716,0.846,0.846,0,0,1,.39-0.686,2.207,2.207,0,0,1,1.3-.293,1.889,1.889,0,0,1,1.57.585,1.771,1.771,0,0,1,.3.878h2.79a3.534,3.534,0,0,0-1.44-2.84,5.889,5.889,0,0,0-3.27-.822,4.6,4.6,0,0,0-3.27,1.094,3.487,3.487,0,0,0-1.16,2.618,2.575,2.575,0,0,0,.74,1.977,6,6,0,0,0,2.57,1.16,16.08,16.08,0,0,1,2.92.867,0.823,0.823,0,0,1,.39.736,0.8,0.8,0,0,1-.49.757,2.849,2.849,0,0,1-1.31.252,2.556,2.556,0,0,1-1.93-.575,1.933,1.933,0,0,1-.38-1.089h-2.83Z" transform="translate(-971 -85)"/>
</svg>
