<svg xmlns="http://www.w3.org/2000/svg" viewBox="0 0 230 35.55"><defs><style>.cls-1{fill:#fff}</style></defs><title>Asset 7</title><g id="Layer_2" data-name="Layer 2"><g id="HERO"><path class="cls-1" d="M68.49 26.43a3.32 3.32 0 0 0 1 1.18 4.35 4.35 0 0 0 1.48.67 7 7 0 0 0 1.75.22 9.07 9.07 0 0 0 1.32-.1 4.56 4.56 0 0 0 1.32-.4 2.87 2.87 0 0 0 1-.8 2 2 0 0 0 .41-1.3 1.83 1.83 0 0 0-.54-1.37 4.29 4.29 0 0 0-1.42-.88 14.17 14.17 0 0 0-2-.61q-1.11-.26-2.25-.58a19.85 19.85 0 0 1-2.28-.72 7.81 7.81 0 0 1-2-1.1A5.16 5.16 0 0 1 64.91 19a5.1 5.1 0 0 1-.54-2.44 5.47 5.47 0 0 1 .69-2.79 6.22 6.22 0 0 1 1.8-2 7.83 7.83 0 0 1 2.51-1.17 10.72 10.72 0 0 1 2.81-.38 13.31 13.31 0 0 1 3.14.37A7.85 7.85 0 0 1 78 11.76a6 6 0 0 1 1.86 2.09 6.42 6.42 0 0 1 .69 3.08h-4.46a3.7 3.7 0 0 0-.39-1.55 2.59 2.59 0 0 0-.89-1 3.78 3.78 0 0 0-1.27-.5 7.85 7.85 0 0 0-1.54-.11 5.4 5.4 0 0 0-1.11.12 3 3 0 0 0-1 .41 2.53 2.53 0 0 0-.75.73 2 2 0 0 0-.29 1.11 1.87 1.87 0 0 0 .23 1 2.08 2.08 0 0 0 .92.7 11.7 11.7 0 0 0 1.9.64l3.1.82q.58.12 1.62.42a7.79 7.79 0 0 1 2.06 1 6.23 6.23 0 0 1 1.77 1.8 5.12 5.12 0 0 1 .75 2.88 6.39 6.39 0 0 1-.52 2.6A5.79 5.79 0 0 1 79 30.16a7.93 7.93 0 0 1-2.72 1.39 12.85 12.85 0 0 1-3.76.5 13.2 13.2 0 0 1-3.35-.42 8.41 8.41 0 0 1-2.87-1.33 6.56 6.56 0 0 1-2-2.31 6.89 6.89 0 0 1-.7-3.33h4.44a3.83 3.83 0 0 0 .45 1.77zM87.17 28a4.26 4.26 0 0 0 4.85.28 2.61 2.61 0 0 0 1.11-1.33h3.65a6.94 6.94 0 0 1-2.69 3.89A7.92 7.92 0 0 1 89.72 32a8.63 8.63 0 0 1-3.22-.57 6.68 6.68 0 0 1-2.43-1.62 7.3 7.3 0 0 1-1.54-2.51A9.2 9.2 0 0 1 82 24a8.81 8.81 0 0 1 .56-3.16 7.31 7.31 0 0 1 4-4.21 7.82 7.82 0 0 1 3.14-.61 7.18 7.18 0 0 1 3.36.75 6.71 6.71 0 0 1 2.35 2 8.23 8.23 0 0 1 1.33 2.87 10.68 10.68 0 0 1 .32 3.36H86.15a4.2 4.2 0 0 0 1.02 3zm4.69-8a2.92 2.92 0 0 0-2.27-.82 3.62 3.62 0 0 0-1.65.34 3.15 3.15 0 0 0-1.05.83 3 3 0 0 0-.56 1.05 4.73 4.73 0 0 0-.19 1h6.76a4.8 4.8 0 0 0-1.03-2.4zM102.67 16.46v2.1h.09a4.76 4.76 0 0 1 2-1.91 5.92 5.92 0 0 1 2.57-.6 7.05 7.05 0 0 1 2.73.45 4.06 4.06 0 0 1 1.68 1.26 4.88 4.88 0 0 1 .86 2 12.2 12.2 0 0 1 .25 2.56v9.3h-4.15V23a5.3 5.3 0 0 0-.58-2.79 2.27 2.27 0 0 0-2.08-.92 2.88 2.88 0 0 0-2.46 1 5.61 5.61 0 0 0-.76 3.32v7.92h-4.1V16.46zM118.76 27.82a2.43 2.43 0 0 0 .72.79 3.06 3.06 0 0 0 1 .45 4.74 4.74 0 0 0 1.18.15 4.41 4.41 0 0 0 .92-.1 3.12 3.12 0 0 0 .88-.32 2 2 0 0 0 .66-.58 1.53 1.53 0 0 0 .26-.92q0-.94-1.24-1.4a25 25 0 0 0-3.46-.94q-.91-.2-1.77-.48a6 6 0 0 1-1.54-.73 3.55 3.55 0 0 1-1.08-1.14 3.23 3.23 0 0 1-.41-1.68 4.55 4.55 0 0 1 .57-2.4A4.21 4.21 0 0 1 117 17a6.61 6.61 0 0 1 2.11-.76 13 13 0 0 1 2.4-.22 12 12 0 0 1 2.38.23 6.32 6.32 0 0 1 2.06.79 4.74 4.74 0 0 1 1.51 1.48 5 5 0 0 1 .72 2.32h-3.95a1.82 1.82 0 0 0-.91-1.62 4.15 4.15 0 0 0-1.93-.42 7.12 7.12 0 0 0-.76 0 2.52 2.52 0 0 0-.75.19 1.54 1.54 0 0 0-.57.42 1.12 1.12 0 0 0-.23.75 1.14 1.14 0 0 0 .41.91 3.16 3.16 0 0 0 1.07.57 13.37 13.37 0 0 0 1.51.39l1.72.38a17.68 17.68 0 0 1 1.77.5 5.84 5.84 0 0 1 1.54.77 3.76 3.76 0 0 1 1.08 1.2 3.52 3.52 0 0 1 .41 1.77 4.59 4.59 0 0 1-2.16 4.12 6.42 6.42 0 0 1-2.21.86 12.88 12.88 0 0 1-2.53.25 12.53 12.53 0 0 1-2.57-.26 6.78 6.78 0 0 1-2.24-.88 5 5 0 0 1-1.61-1.62 5.08 5.08 0 0 1-.69-2.53h3.95a2.28 2.28 0 0 0 .23 1.23zM130.3 14.12V10.7h4.15v3.42zm4.15 2.34v15.12h-4.15V16.46zM137 20.75a6.91 6.91 0 0 1 4-4.12 8.63 8.63 0 0 1 3.22-.57 8.75 8.75 0 0 1 3.23.57 6.89 6.89 0 0 1 4 4.12 9.29 9.29 0 0 1 .56 3.29 9.17 9.17 0 0 1-.56 3.27 7.1 7.1 0 0 1-1.58 2.5 6.88 6.88 0 0 1-2.47 1.59 9 9 0 0 1-3.23.56 8.84 8.84 0 0 1-3.22-.56 6.9 6.9 0 0 1-2.46-1.59 7.09 7.09 0 0 1-1.58-2.5 9.15 9.15 0 0 1-.56-3.27 9.27 9.27 0 0 1 .65-3.29zm3.77 5.06a4.7 4.7 0 0 0 .6 1.55 3.19 3.19 0 0 0 1.13 1.1 3.44 3.44 0 0 0 1.75.41 3.52 3.52 0 0 0 1.77-.41 3.16 3.16 0 0 0 1.14-1.1 4.71 4.71 0 0 0 .6-1.55A8.86 8.86 0 0 0 148 24a9.08 9.08 0 0 0-.18-1.78 4.55 4.55 0 0 0-.6-1.55 3.33 3.33 0 0 0-1.14-1.1 3.42 3.42 0 0 0-1.77-.42 3.19 3.19 0 0 0-2.88 1.52 4.54 4.54 0 0 0-.6 1.55 9.08 9.08 0 0 0-.18 1.78 8.86 8.86 0 0 0 .15 1.8zM167.84 16.27a4.63 4.63 0 0 0-1-1.16 4.8 4.8 0 0 0-3-1.05 5.36 5.36 0 0 0-2.63.6 5 5 0 0 0-1.75 1.61 7 7 0 0 0-1 2.29 11.42 11.42 0 0 0-.31 2.66 10.62 10.62 0 0 0 .31 2.56 6.9 6.9 0 0 0 1 2.24 5 5 0 0 0 1.75 1.59 5.36 5.36 0 0 0 2.63.6 4.25 4.25 0 0 0 3.29-1.29 6 6 0 0 0 1.45-3.39H173a10.61 10.61 0 0 1-.91 3.54 8.47 8.47 0 0 1-1.93 2.69 8.2 8.2 0 0 1-2.81 1.7 10.29 10.29 0 0 1-3.54.58 10.71 10.71 0 0 1-4.31-.83 9.24 9.24 0 0 1-3.23-2.3 10.16 10.16 0 0 1-2-3.44 12.62 12.62 0 0 1-.7-4.25 13.05 13.05 0 0 1 .7-4.34 10.43 10.43 0 0 1 2-3.49 9.22 9.22 0 0 1 3.23-2.34 11.19 11.19 0 0 1 7.57-.35 8.84 8.84 0 0 1 2.75 1.45 7.83 7.83 0 0 1 2 2.35 8.42 8.42 0 0 1 1 3.22h-4.44a3.75 3.75 0 0 0-.54-1.45zM179.16 10.7v20.88H175V10.7zM181.73 20.75a6.91 6.91 0 0 1 4-4.12 8.63 8.63 0 0 1 3.22-.57 8.75 8.75 0 0 1 3.23.57 6.89 6.89 0 0 1 4 4.12 9.29 9.29 0 0 1 .56 3.29 9.17 9.17 0 0 1-.56 3.27 7.1 7.1 0 0 1-1.58 2.5 6.88 6.88 0 0 1-2.47 1.59 9 9 0 0 1-3.13.6 8.84 8.84 0 0 1-3.22-.56 6.9 6.9 0 0 1-2.46-1.59 7.09 7.09 0 0 1-1.58-2.5 9.15 9.15 0 0 1-.56-3.27 9.27 9.27 0 0 1 .55-3.33zm3.77 5.06a4.7 4.7 0 0 0 .6 1.55 3.19 3.19 0 0 0 1.13 1.1 3.44 3.44 0 0 0 1.75.41 3.52 3.52 0 0 0 1.77-.41 3.16 3.16 0 0 0 1.14-1.1 4.71 4.71 0 0 0 .6-1.55 8.86 8.86 0 0 0 .18-1.77 9.08 9.08 0 0 0-.18-1.78 4.55 4.55 0 0 0-.6-1.55 3.33 3.33 0 0 0-1.14-1.1 3.42 3.42 0 0 0-1.77-.42 3.19 3.19 0 0 0-2.88 1.52 4.54 4.54 0 0 0-.6 1.55 9.08 9.08 0 0 0-.18 1.78 8.86 8.86 0 0 0 .18 1.76zM208.95 31.58v-2.11h-.09a4.67 4.67 0 0 1-2 1.9 6 6 0 0 1-2.57.58 7.26 7.26 0 0 1-2.73-.44 3.94 3.94 0 0 1-1.68-1.24 4.87 4.87 0 0 1-.86-2 12.17 12.17 0 0 1-.25-2.56v-9.3h4.15V25a5.29 5.29 0 0 0 .58 2.79 2.26 2.26 0 0 0 2.08.92 2.88 2.88 0 0 0 2.46-1 5.61 5.61 0 0 0 .76-3.32v-7.93h4.15v15.12zM226 29.65a4.28 4.28 0 0 1-1.92 1.77 6.38 6.38 0 0 1-2.68.54 6.46 6.46 0 0 1-3-.66 6 6 0 0 1-2.12-1.78 8.09 8.09 0 0 1-1.28-2.59 10.87 10.87 0 0 1-.42-3A10.21 10.21 0 0 1 215 21a7.64 7.64 0 0 1 1.26-2.5 6.11 6.11 0 0 1 5-2.4 5.94 5.94 0 0 1 2.56.57 4.46 4.46 0 0 1 1.92 1.68h.06V10.7h4.2v20.88h-3.95v-1.93zm-.18-7.47a4.4 4.4 0 0 0-.6-1.52 3.38 3.38 0 0 0-1.1-1.07 3.22 3.22 0 0 0-1.7-.41 3.37 3.37 0 0 0-1.72.41 3.24 3.24 0 0 0-1.13 1.08 4.79 4.79 0 0 0-.61 1.54 8.33 8.33 0 0 0-.19 1.8 7.69 7.69 0 0 0 .2 1.75 4.78 4.78 0 0 0 .66 1.56 3.63 3.63 0 0 0 1.14 1.11 3.08 3.08 0 0 0 1.65.42 3.29 3.29 0 0 0 1.71-.41 3.12 3.12 0 0 0 1.1-1.1 4.91 4.91 0 0 0 .58-1.56A9.19 9.19 0 0 0 226 24a9 9 0 0 0-.18-1.82zM19.7 14.6c-1.23 0-2.65.5-2.65 1.92s.83 1.47 5.22 2.56a9.9 9.9 0 0 1 3.16 1.2 11.39 11.39 0 0 1 .5-3.12h-2.78c-.15-2.04-1.62-2.56-3.45-2.56z"/><path class="cls-1" d="M54.63 22.13A13.59 13.59 0 0 0 40.88 8.71a14.12 14.12 0 0 0-2.14.18A16.68 16.68 0 0 0 23.84 0 16.42 16.42 0 0 0 7.49 13.1 11.65 11.65 0 0 0 0 23.9a11.79 11.79 0 0 0 11.94 11.65h29.44a13.56 13.56 0 0 0 13.25-13.42zM30.23 25a3.68 3.68 0 0 0 3 1.4 3.39 3.39 0 0 0 2.8-1.2 5.2 5.2 0 0 0 .89-1.94h3.55a7.46 7.46 0 0 1-2.35 4.44 6.94 6.94 0 0 1-4.84 1.71 7.35 7.35 0 0 1-5.74-2.31 7.23 7.23 0 0 1-.6-.79c-1 1.86-3.26 3.09-6.72 3.09-3.87 0-7.5-1.85-7.46-6h3.73c0 2.26 1.81 3.13 3.88 3.13 1.35 0 3.41-.38 3.41-2.11s-2.62-2.14-5.2-2.8-5.26-1.62-5.26-4.79c0-3.47 3.38-5.13 6.55-5.13s6 1.12 6.79 3.85a7.24 7.24 0 0 1 1.14-1.49A7.13 7.13 0 0 1 33 12q4.27 0 6.24 2.76a5.93 5.93 0 0 1 1.17 3.11h-3.52a4.7 4.7 0 0 0-.89-1.81A3.57 3.57 0 0 0 33.19 15a3.51 3.51 0 0 0-3 1.53 7.35 7.35 0 0 0-1.1 4.34A6.46 6.46 0 0 0 30.23 25z"/></g></g></svg>
